<?xml version="1.0" encoding="UTF-8"?>
<svg width="94px" height="18px" viewBox="0 0 94 18" version="1.1" xmlns="http://www.w3.org/2000/svg" xmlns:xlink="http://www.w3.org/1999/xlink">
    <!-- Generator: Sketch 44.1 (41455) - http://www.bohemiancoding.com/sketch -->
    <title>Group</title>
    <desc>Created with Sketch.</desc>
    <defs></defs>
    <g id="Symbols" stroke="none" stroke-width="1" fill="none" fill-rule="evenodd">
        <g id="Menu-/-Desktop-/-With-mail" transform="translate(-251.000000, -27.000000)" fill="#FFFFFF">
            <g id="Group" transform="translate(251.000000, 27.000000)">
                <path d="M6.86003336,14.3435168 L2.78319007,14.3435168 L2.78319007,17.7532523 L6.86003336,17.7532523 C14.0345511,17.7532523 16.0647472,13.3246616 17.6960373,9.76594683 C19.2781057,6.31516334 20.5275988,3.58960437 25.8239943,3.58973552 L32.0155602,3.58973552 L32.0155602,1.08 L32.0155602,1.08 C32.0155602,0.582943725 31.6126165,0.18 31.1155602,0.18 L25.8234021,0.18 C18.3292068,0.18 16.2520922,4.70970249 14.5836227,8.34920172 C12.9883934,11.8292302 11.8357642,14.3435168 6.86003336,14.3435168 Z" id="Symbol-2-Copy"></path>
                <path d="M28.6399236,14.3435168 L25.5600083,14.3435168 C20.6825891,14.3435168 19.5485168,11.8322466 17.9788196,8.35667691 C16.333579,4.71376794 14.285879,0.18 6.88499425,0.18 L3.4218267,0.18 L0.9,0.18 L0.9,0.18 C0.402943725,0.18 -1.7189414e-16,0.582943725 -1.11022302e-16,1.08 L0,16.8532523 L1.11022302e-16,16.8532523 C1.7189414e-16,17.3503086 0.402943725,17.7532523 0.9,17.7532523 L3.4218267,17.7532523 L3.4218267,3.58973552 L6.88499425,3.58973552 C12.0735364,3.58973552 13.3024986,6.3108356 14.8583769,9.75597991 C16.4674251,13.3188912 18.470115,17.7532523 25.5600083,17.7532523 L31.1515759,17.7532523 C31.6486322,17.7532523 32.0515759,17.3503086 32.0515759,16.8532523 L32.0515759,15.5867584 L32.0515759,9.99 L28.6399236,9.99 L28.6399236,14.3435168 Z" id="Symbol-1-Copy"></path>
                <path d="M43.5434575,14.58 C46.6176844,14.58 49.1098376,12.0817489 49.1098376,9 C49.1098376,5.9182511 46.6176844,3.42 43.5434575,3.42 C40.4692306,3.42 37.9770774,5.9182511 37.9770774,9 C37.9770774,12.0817489 40.4692306,14.58 43.5434575,14.58 Z M43.5434575,18 C38.5850271,18 34.565425,13.9705627 34.565425,9 C34.565425,4.02943725 38.5850271,0 43.5434575,0 C48.5018879,0 52.52149,4.02943725 52.52149,9 C52.52149,13.9705627 48.5018879,18 43.5434575,18 Z" id="Oval-6" fill-rule="nonzero"></path>
                <path d="M66.7498758,9.3222 C67.3113049,9.71700197 67.5920153,10.2545966 67.5920153,10.935 C67.5920153,11.4054024 67.4558498,11.8148983 67.1835148,12.1635 C66.9111798,12.5121017 66.5403908,12.7493994 66.0711366,12.8754 C66.6409452,12.9846005 67.0892438,13.238698 67.4160458,13.6377 C67.7428479,14.036702 67.9062464,14.5259971 67.9062464,15.1056 C67.9062464,15.8616038 67.6087773,16.4579978 67.01383,16.8948 C66.4188827,17.3316022 65.6102694,17.55 64.5879656,17.55 L60.4024069,17.55 L60.4024069,8.73 L64.4497039,8.73 C65.4217304,8.73 66.1884467,8.92739803 66.7498758,9.3222 Z M65.2352818,12.0249 C65.44896,11.8526991 65.5557975,11.6112016 65.5557975,11.3004 C65.5557975,10.9979985 65.44896,10.7628008 65.2352818,10.5948 C65.0216035,10.4267992 64.7262292,10.347 64.34915,10.3554 L62.3883477,10.3554 L62.3883477,12.2832 L64.34915,12.2832 C64.7262292,12.2832 65.0216035,12.1971009 65.2352818,12.0249 Z M65.4552436,15.6411 C65.7233888,15.4520991 65.8574594,15.1896017 65.8574594,14.8536 C65.8574594,14.5343984 65.7233888,14.2824009 65.4552436,14.0976 C65.1870983,13.9127991 64.8184041,13.8246 64.34915,13.833 L62.3883477,13.833 L62.3883477,15.9246 L64.34915,15.9246 C64.8184041,15.9246 65.1870983,15.8301009 65.4552436,15.6411 Z M69.3517096,8.73 L76.0511175,8.73 L76.0511175,10.3806 L71.3376504,10.3806 L71.3376504,12.2958 L75.5734862,12.2958 L75.5734862,13.9464 L71.3376504,13.9464 L71.3376504,15.8994 L76.1893792,15.8994 L76.1893792,17.55 L69.3517096,17.55 L69.3517096,8.73 Z M76.8806877,8.73 L84.2336963,8.73 L84.2336963,10.4184 L81.5438777,10.4184 L81.5438777,17.55 L79.557937,17.55 L79.557937,10.4184 L76.8806877,10.4184 L76.8806877,8.73 Z M91.800382,17.55 L91.1090735,15.8364 L87.036638,15.8364 L86.3453295,17.55 L84.2965425,17.55 L88.1175931,8.73 L90.1663801,8.73 L93.9245845,17.55 L91.800382,17.55 Z M87.6902388,14.2362 L90.468042,14.2362 L89.085425,10.809 L87.6902388,14.2362 Z" id="Beta"></path>
            </g>
        </g>
    </g>
</svg>